<?xml version="1.0" encoding="utf-8"?>
<!-- Generator: Adobe Illustrator 19.0.0, SVG Export Plug-In . SVG Version: 6.00 Build 0)  -->
<svg version="1.1" id="Layer_1" xmlns="http://www.w3.org/2000/svg" xmlns:xlink="http://www.w3.org/1999/xlink" width="300px" height="84px" x="0px" y="0px"
	 viewBox="0 0 398.6 112.1" style="enable-background:new 0 0 398.6 112.1;" xml:space="preserve">
<style type="text/css">
	.st0{clip-path:url(#XMLID_102_);fill:url(#XMLID_103_);}
	.st1{fill:#0057A8;}
	.st2{fill:#0054A6;}
	.st3{fill:#0052A4;}
</style>
<g id="XMLID_100_">
	<g id="XMLID_7_">
		<g id="XMLID_11_">
			<defs>
				<path id="XMLID_4_" d="M6.5,13.1c-0.2,0.1-0.3,0.3-0.3,0.5c0,0.2,0.2,0.3,0.4,0.3c13.6-0.5,26.4,5,35.3,15.1
					c7.2,8.2,9.8,17.7,8.2,29.4h4c8.4-15.1,8.5-30.7-0.1-40.6C48.4,11.3,39.7,8,29.6,8C22.4,8,14.5,9.6,6.5,13.1"/>
			</defs>
			<clipPath id="XMLID_102_">
				<use xlink:href="#XMLID_4_"  style="overflow:visible;"/>
			</clipPath>

				<linearGradient id="XMLID_103_" gradientUnits="userSpaceOnUse" x1="160.042" y1="994.0897" x2="163.3865" y2="994.0897" gradientTransform="matrix(-13.1414 -14.183 -14.183 13.1414 16257.8145 -10738.0352)">
				<stop  offset="0" style="stop-color:#BCD85F"/>
				<stop  offset="1" style="stop-color:#00A96C"/>
			</linearGradient>
			<polygon id="XMLID_5_" class="st0" points="32.3,86.5 -18.9,31.2 36.6,-20.2 87.8,35.1 			"/>
		</g>
		<path id="XMLID_3_" class="st1" d="M139.8,12.9C113,2.8,83.9,8.4,65.8,27.1C47,46.4,44,76.3,58.4,101.4c0.1,0.2,0.3,0.3,0.5,0.2
			c0.2-0.1,0.3-0.2,0.3-0.4c-1.6-25.1,5.1-44.7,20.3-60.4C94.6,25.2,117,15,139.7,13.7c0.2,0,0.4-0.2,0.4-0.4
			C140.1,13.1,140,12.9,139.8,12.9"/>
		<path id="XMLID_2_" class="st2" d="M81.2,101.6l2.3-38.2c0.4-6.5,2.3-11.3,5.8-14.5c3.5-3.1,8.6-4.7,15.4-4.7h26.8l-0.8,13.4
			h-23.1c-2,0-3.5,0.5-4.6,1.5c-1.1,1-1.7,2.5-1.8,4.4l-0.2,3.7h26.8L127,80.7h-26.8l-1.3,20.9H81.2z"/>
		<path id="XMLID_1_" class="st3" d="M18.2,39c-2,0-3.7,1.6-3.8,3.6l-0.4,6.7l-3.2,52.2h20.5L35,39H18.2z"/>
	</g>
	<g id="XMLID_99_">
		<g id="XMLID_50_">
			<path id="XMLID_51_" class="st2" d="M155.7,46h4.5l-1.9,22.1h-4.5L155.7,46z"/>
			<path id="XMLID_53_" class="st2" d="M172.5,61.1L172.5,61.1l1.4-15.2h4.1L176,68.1H171l-4.1-15.5h-0.1l-1.4,15.5h-4.1l1.9-22.1
				h5.1L172.5,61.1z"/>
			<path id="XMLID_55_" class="st2" d="M193.6,49.6h-4.8l-1.6,18.5h-4.5l1.6-18.5h-4.8l0.3-3.7h14.1L193.6,49.6z"/>
			<path id="XMLID_57_" class="st2" d="M207.7,49.6h-7.9l-0.5,5.2h7.4l-0.3,3.7H199l-0.5,6h8.2l-0.3,3.7h-12.7l1.9-22.1H208
				L207.7,49.6z"/>
			<path id="XMLID_59_" class="st2" d="M218.6,46c1.9,0,3.3,0.5,4.2,1.4c1,0.9,1.3,2.4,1.2,4.3c-0.1,1.5-0.5,2.7-1.2,3.6
				c-0.7,0.9-1.7,1.5-2.9,1.8l0,0.1c1.1,0.2,1.9,0.5,2.4,1.1c0.5,0.6,0.7,1.5,0.7,2.7c0,0.4,0,0.9,0,1.3c0,0.5,0,1-0.1,1.6
				c-0.1,1.2-0.1,2.1,0,2.7c0.1,0.6,0.3,1,0.7,1.3l0,0.2h-4.8c-0.2-0.3-0.3-0.7-0.3-1.1c0-0.4,0-0.8,0-1.3l0.2-4.2
				c0-0.9-0.1-1.6-0.5-2c-0.3-0.5-1-0.7-1.9-0.7h-2.4l-0.8,9.4h-4.5l1.9-22.1H218.6z M215.9,55.6c1.1,0,1.9-0.3,2.5-0.8
				c0.6-0.5,1-1.4,1.1-2.6c0.2-2-0.8-3.1-2.8-3.1h-2.1l-0.6,6.4H215.9z"/>
			<path id="XMLID_62_" class="st2" d="M236.7,61.1L236.7,61.1l1.4-15.2h4.1l-1.9,22.1h-5.1l-4.1-15.5H231l-1.4,15.5h-4.1l1.9-22.1
				h5.1L236.7,61.1z"/>
			<path id="XMLID_64_" class="st2" d="M255,46l3.9,22.1h-4.7l-0.6-4.7h-5.9l-1.4,4.7h-4.7l7.8-22.1H255z M253.2,59.8l-1.3-10h-0.1
				l-3,10H253.2z"/>
			<path id="XMLID_67_" class="st2" d="M273.1,49.6h-4.8l-1.6,18.5h-4.5l1.6-18.5H259l0.3-3.7h14.1L273.1,49.6z"/>
			<path id="XMLID_69_" class="st2" d="M275.4,46h4.5L278,68.1h-4.5L275.4,46z"/>
			<path id="XMLID_71_" class="st2" d="M282.3,52.4c0.3-1.4,0.7-2.6,1.3-3.6c0.6-1,1.4-1.8,2.5-2.4c1-0.6,2.4-0.9,4.1-0.9
				s3,0.3,3.9,0.9c0.9,0.6,1.6,1.4,2.1,2.4c0.4,1,0.7,2.2,0.7,3.6c0,1.4,0,3-0.2,4.6c-0.1,1.7-0.4,3.2-0.6,4.6
				c-0.3,1.4-0.7,2.6-1.3,3.6c-0.6,1-1.4,1.8-2.5,2.3s-2.4,0.8-4.1,0.8s-3-0.3-3.9-0.8s-1.6-1.3-2.1-2.3c-0.4-1-0.7-2.2-0.7-3.6
				c0-1.4,0-3,0.2-4.6C281.8,55.4,282,53.8,282.3,52.4z M285.9,60.8c0,1,0.1,1.9,0.2,2.5c0.2,0.7,0.4,1.1,0.8,1.4
				c0.4,0.3,0.9,0.4,1.6,0.4c0.7,0,1.2-0.1,1.6-0.4c0.4-0.3,0.8-0.8,1.1-1.4s0.5-1.5,0.7-2.5c0.2-1,0.3-2.3,0.4-3.8
				c0.1-1.5,0.2-2.7,0.2-3.8c0-1-0.1-1.9-0.2-2.5c-0.2-0.7-0.4-1.1-0.8-1.4c-0.4-0.3-0.9-0.4-1.6-0.4c-0.7,0-1.2,0.2-1.6,0.4
				c-0.4,0.3-0.8,0.8-1.1,1.4c-0.3,0.7-0.5,1.5-0.7,2.5c-0.2,1-0.3,2.3-0.4,3.8C286,58.5,285.9,59.8,285.9,60.8z"/>
			<path id="XMLID_74_" class="st2" d="M309.4,61.1L309.4,61.1l1.4-15.2h4.1l-1.9,22.1h-5.1l-4.1-15.5h-0.1l-1.4,15.5h-4.1l1.9-22.1
				h5.1L309.4,61.1z"/>
			<path id="XMLID_76_" class="st2" d="M327.6,46l3.9,22.1h-4.7l-0.6-4.7h-5.9l-1.4,4.7h-4.7l7.8-22.1H327.6z M325.8,59.8l-1.3-10
				h-0.1l-3,10H325.8z"/>
			<path id="XMLID_79_" class="st2" d="M334.9,46h4.5l-1.6,18.5h7.9l-0.3,3.7h-12.4L334.9,46z"/>
		</g>
		<g id="XMLID_9_">
			<path id="XMLID_10_" class="st2" d="M157.2,87.8L157.2,87.8l3.9-8.6h4.8L159,92.7l-0.8,8.7h-4.5l0.8-8.7L150,79.3h5L157.2,87.8z"
				/>
			<path id="XMLID_14_" class="st2" d="M166.6,85.7c0.3-1.4,0.7-2.6,1.3-3.6c0.6-1,1.4-1.8,2.5-2.4c1-0.6,2.4-0.9,4.1-0.9
				s3,0.3,3.9,0.9c0.9,0.6,1.6,1.4,2.1,2.4c0.4,1,0.7,2.2,0.7,3.6c0,1.4,0,3-0.2,4.6c-0.1,1.7-0.4,3.2-0.6,4.6
				c-0.3,1.4-0.7,2.6-1.3,3.6c-0.6,1-1.4,1.8-2.5,2.3c-1,0.5-2.4,0.8-4.1,0.8s-3-0.3-3.9-0.8c-0.9-0.5-1.6-1.3-2.1-2.3
				c-0.4-1-0.7-2.2-0.7-3.6c0-1.4,0-3,0.2-4.6C166.1,88.7,166.3,87.1,166.6,85.7z M170.2,94.1c0,1,0.1,1.9,0.2,2.5
				c0.2,0.7,0.4,1.1,0.8,1.4c0.4,0.3,0.9,0.4,1.6,0.4c0.7,0,1.2-0.1,1.6-0.4c0.4-0.3,0.8-0.8,1.1-1.4s0.5-1.5,0.7-2.5
				c0.2-1,0.3-2.3,0.4-3.8c0.1-1.5,0.2-2.7,0.2-3.8c0-1-0.1-1.9-0.2-2.5c-0.2-0.7-0.4-1.1-0.8-1.4c-0.4-0.3-0.9-0.4-1.6-0.4
				c-0.7,0-1.2,0.2-1.6,0.4c-0.4,0.3-0.8,0.8-1.1,1.4c-0.3,0.7-0.5,1.5-0.7,2.5c-0.2,1-0.3,2.3-0.4,3.8
				C170.3,91.8,170.2,93.1,170.2,94.1z"/>
			<path id="XMLID_17_" class="st2" d="M187.3,94.7c0,0.6-0.1,1.1,0,1.5c0,0.5,0.1,0.9,0.3,1.2c0.2,0.3,0.4,0.6,0.7,0.8
				c0.3,0.2,0.7,0.3,1.3,0.3c0.5,0,1-0.1,1.3-0.3c0.3-0.2,0.6-0.5,0.9-0.8c0.2-0.3,0.4-0.7,0.5-1.2c0.1-0.5,0.2-1,0.2-1.5l1.4-15.4
				h4.5L197,94.7c-0.1,1.4-0.4,2.6-0.9,3.5c-0.5,0.9-1.1,1.6-1.8,2.2c-0.7,0.5-1.5,0.9-2.4,1.1c-0.9,0.2-1.7,0.3-2.7,0.3
				s-1.8-0.1-2.6-0.2c-0.8-0.2-1.6-0.5-2.2-1c-0.6-0.5-1.1-1.2-1.4-2.2c-0.3-0.9-0.4-2.1-0.3-3.6l1.4-15.4h4.5L187.3,94.7z"/>
			<path id="XMLID_19_" class="st2" d="M213.6,82.9h-4.8l-1.6,18.5h-4.5l1.6-18.5h-4.8l0.3-3.7H214L213.6,82.9z"/>
			<path id="XMLID_21_" class="st2" d="M220.2,79.3l-0.7,8.5h5.2l0.7-8.5h4.5l-1.9,22.1h-4.5l0.9-9.8h-5.2l-0.9,9.8h-4.5l1.9-22.1
				H220.2z"/>
			<path id="XMLID_24_" class="st2" d="M252.5,79.3l-0.3,3.7h-7.9l-0.5,5.2h7.4l-0.3,3.7h-7.4l-0.8,9.6h-4.5l1.9-22.1H252.5z"/>
			<path id="XMLID_27_" class="st2" d="M266.3,82.9h-7.9l-0.5,5.2h7.4l-0.3,3.7h-7.4l-0.5,6h8.2l-0.3,3.7h-12.7l1.9-22.1h12.4
				L266.3,82.9z"/>
			<path id="XMLID_30_" class="st2" d="M269.1,79.3h4.5l-1.6,18.5h7.9l-0.3,3.7h-12.4L269.1,79.3z"/>
			<path id="XMLID_32_" class="st2" d="M283.3,79.3h4.5l-1.6,18.5h7.9l-0.3,3.7h-12.4L283.3,79.3z"/>
			<path id="XMLID_36_" class="st2" d="M296.7,85.7c0.3-1.4,0.7-2.6,1.3-3.6c0.6-1,1.4-1.8,2.5-2.4c1-0.6,2.4-0.9,4.1-0.9
				s3,0.3,3.9,0.9c0.9,0.6,1.6,1.4,2.1,2.4c0.4,1,0.7,2.2,0.7,3.6c0,1.4,0,3-0.2,4.6c-0.1,1.7-0.4,3.2-0.6,4.6
				c-0.3,1.4-0.7,2.6-1.3,3.6c-0.6,1-1.4,1.8-2.5,2.3s-2.4,0.8-4.1,0.8s-3-0.3-3.9-0.8s-1.6-1.3-2.1-2.3c-0.4-1-0.7-2.2-0.7-3.6
				c0-1.4,0-3,0.2-4.6C296.2,88.7,296.4,87.1,296.7,85.7z M300.3,94.1c0,1,0.1,1.9,0.2,2.5c0.2,0.7,0.4,1.1,0.8,1.4
				c0.4,0.3,0.9,0.4,1.6,0.4c0.7,0,1.2-0.1,1.6-0.4c0.4-0.3,0.8-0.8,1.1-1.4s0.5-1.5,0.7-2.5c0.2-1,0.3-2.3,0.4-3.8
				c0.1-1.5,0.2-2.7,0.2-3.8c0-1-0.1-1.9-0.2-2.5c-0.2-0.7-0.4-1.1-0.8-1.4c-0.4-0.3-0.9-0.4-1.6-0.4c-0.7,0-1.2,0.2-1.6,0.4
				c-0.4,0.3-0.8,0.8-1.1,1.4c-0.3,0.7-0.5,1.5-0.7,2.5c-0.2,1-0.3,2.3-0.4,3.8C300.4,91.8,300.3,93.1,300.3,94.1z"/>
			<path id="XMLID_39_" class="st2" d="M317.5,79.3l1,16.4h0.1l4-16.4h4.3l1.2,16.4h0.1l3.9-16.4h4.3l-6,22.1h-5l-1.1-16.1h-0.1
				l-3.9,16.1h-5l-2.1-22.1H317.5z"/>
			<path id="XMLID_41_" class="st2" d="M340.1,95.1c0,0.5,0,1,0,1.4c0,0.4,0.2,0.8,0.4,1.1c0.2,0.3,0.5,0.5,0.9,0.7
				c0.4,0.2,0.8,0.2,1.4,0.2c0.7,0,1.3-0.2,1.9-0.7c0.6-0.4,0.9-1.1,1-2.1c0-0.5,0-0.9-0.1-1.3c-0.1-0.4-0.3-0.7-0.6-1
				c-0.3-0.3-0.7-0.6-1.2-0.8c-0.5-0.2-1.1-0.5-1.8-0.7c-1-0.3-1.8-0.7-2.5-1.1c-0.7-0.4-1.3-0.9-1.7-1.4c-0.4-0.5-0.7-1.1-0.9-1.8
				s-0.2-1.5-0.1-2.4c0.2-2.2,0.9-3.8,2.3-4.9c1.3-1.1,3-1.6,5.2-1.6c1,0,1.9,0.1,2.7,0.3c0.8,0.2,1.5,0.6,2.1,1.1
				c0.6,0.5,1,1.1,1.3,1.9c0.3,0.8,0.4,1.7,0.3,2.7l-0.1,0.6h-4.3c0.1-1.1,0-1.9-0.3-2.4c-0.3-0.6-0.9-0.9-1.8-0.9
				c-0.5,0-0.9,0.1-1.3,0.2c-0.3,0.1-0.6,0.3-0.8,0.6c-0.2,0.2-0.4,0.5-0.5,0.8s-0.2,0.6-0.2,1c-0.1,0.7,0,1.3,0.3,1.7
				c0.2,0.5,0.8,0.9,1.7,1.3l3.3,1.5c0.8,0.4,1.5,0.8,2,1.2c0.5,0.4,0.9,0.8,1.2,1.3c0.3,0.5,0.5,1,0.5,1.5c0.1,0.6,0.1,1.2,0,1.9
				c-0.2,2.3-1,4-2.5,5.1c-1.4,1.1-3.4,1.6-5.8,1.6c-2.5,0-4.3-0.5-5.3-1.6c-1-1.1-1.4-2.7-1.2-4.7l0.1-0.9h4.5L340.1,95.1z"/>
			<path id="XMLID_43_" class="st2" d="M358.3,79.3l-0.7,8.5h5.2l0.7-8.5h4.5l-1.9,22.1h-4.5l0.9-9.8h-5.2l-0.9,9.8h-4.5l1.9-22.1
				H358.3z"/>
			<path id="XMLID_45_" class="st2" d="M371.2,79.3h4.5l-1.9,22.1h-4.5L371.2,79.3z"/>
			<path id="XMLID_47_" class="st2" d="M386.6,79.3c1.1,0,2.1,0.2,2.8,0.6c0.7,0.4,1.3,0.9,1.7,1.5c0.4,0.6,0.7,1.3,0.8,2.1
				c0.1,0.8,0.2,1.6,0.1,2.4c-0.1,1.1-0.4,2.1-0.8,3c-0.4,0.8-1,1.5-1.6,2.1c-0.7,0.5-1.4,0.9-2.3,1.2s-1.9,0.4-2.9,0.4h-2.4
				l-0.8,8.8h-4.5l1.9-22.1H386.6z M384.4,89.3c0.9,0,1.6-0.3,2.2-0.8c0.6-0.5,0.9-1.4,1-2.5c0.1-1.1-0.1-2-0.5-2.5
				c-0.4-0.6-1.2-0.9-2.3-0.9H383l-0.6,6.7H384.4z"/>
		</g>
	</g>
</g>
</svg>
